<svg xmlns="http://www.w3.org/2000/svg" viewBox="0 0 128 128" role="img" aria-labelledby="title desc">
  <title id="title">Brain Rush</title>
  <desc id="desc">A neon brain circuit icon for Brain Rush.</desc>
  <defs>
    <linearGradient id="tile" x1="18" y1="16" x2="110" y2="112" gradientUnits="userSpaceOnUse">
      <stop offset="0" stop-color="#22d3ee"/>
      <stop offset="0.56" stop-color="#6366f1"/>
      <stop offset="1" stop-color="#a855f7"/>
    </linearGradient>
    <radialGradient id="glow" cx="50%" cy="45%" r="60%">
      <stop offset="0" stop-color="#ffffff" stop-opacity="0.34"/>
      <stop offset="0.42" stop-color="#67e8f9" stop-opacity="0.16"/>
      <stop offset="1" stop-color="#111827" stop-opacity="0"/>
    </radialGradient>
    <filter id="shadow" x="-30%" y="-30%" width="160%" height="160%">
      <feDropShadow dx="0" dy="12" stdDeviation="12" flood-color="#020617" flood-opacity="0.42"/>
      <feDropShadow dx="0" dy="0" stdDeviation="10" flood-color="#22d3ee" flood-opacity="0.28"/>
    </filter>
  </defs>
  <rect x="14" y="14" width="100" height="100" rx="28" fill="url(#tile)" filter="url(#shadow)"/>
  <rect x="14" y="14" width="100" height="100" rx="28" fill="url(#glow)"/>
  <g fill="none" stroke="#f8fafc" stroke-width="7" stroke-linecap="round" stroke-linejoin="round">
    <path d="M48 38c-9 0-16 7-16 16 0 5 2 9 6 12-4 3-6 7-6 12 0 9 7 16 16 16 7 0 13-4 15-10V48c-2-6-8-10-15-10Z"/>
    <path d="M80 38c9 0 16 7 16 16 0 5-2 9-6 12 4 3 6 7 6 12 0 9-7 16-16 16-7 0-13-4-15-10V48c2-6 8-10 15-10Z"/>
    <path d="M64 48v36"/>
    <path d="M43 56h14"/>
    <path d="M71 56h14"/>
    <path d="M43 75h14"/>
    <path d="M71 75h14"/>
  </g>
  <g fill="#fef3c7">
    <circle cx="42" cy="56" r="3.2"/>
    <circle cx="86" cy="56" r="3.2"/>
    <circle cx="42" cy="75" r="3.2"/>
    <circle cx="86" cy="75" r="3.2"/>
  </g>
</svg>
